<svg width="80" height="80" viewBox="0 0 80 80" fill="none" xmlns="http://www.w3.org/2000/svg">
<path d="M28 49C26.6 49 25.4167 48.5167 24.45 47.55C23.4833 46.5833 23 45.4 23 44C23 42.6 23.4833 41.4167 24.45 40.45C25.4167 39.4833 26.6 39 28 39C29.4 39 30.5833 39.4833 31.55 40.45C32.5167 41.4167 33 42.6 33 44C33 45.4 32.5167 46.5833 31.55 47.55C30.5833 48.5167 29.4 49 28 49ZM52 49C50.6 49 49.4167 48.5167 48.45 47.55C47.4833 46.5833 47 45.4 47 44C47 42.6 47.4833 41.4167 48.45 40.45C49.4167 39.4833 50.6 39 52 39C53.4 39 54.5833 39.4833 55.55 40.45C56.5167 41.4167 57 42.6 57 44C57 45.4 56.5167 46.5833 55.55 47.55C54.5833 48.5167 53.4 49 52 49ZM40 72C48.9333 72 56.5 68.9 62.7 62.7C68.9 56.5 72 48.9333 72 40C72 38.4 71.9 36.85 71.7 35.35C71.5 33.85 71.1333 32.4 70.6 31C69.2 31.3333 67.8 31.5833 66.4 31.75C65 31.9167 63.5333 32 62 32C55.9333 32 50.2 30.7 44.8 28.1C39.4 25.5 34.8 21.8667 31 17.2C28.8667 22.4 25.8167 26.9167 21.85 30.75C17.8833 34.5833 13.2667 37.4667 8 39.4V40C8 48.9333 11.1 56.5 17.3 62.7C23.5 68.9 31.0667 72 40 72ZM40 80C34.4667 80 29.2667 78.95 24.4 76.85C19.5333 74.75 15.3 71.9 11.7 68.3C8.1 64.7 5.25 60.4667 3.15 55.6C1.05 50.7333 0 45.5333 0 40C0 34.4667 1.05 29.2667 3.15 24.4C5.25 19.5333 8.1 15.3 11.7 11.7C15.3 8.1 19.5333 5.25 24.4 3.15C29.2667 1.05 34.4667 0 40 0C45.5333 0 50.7333 1.05 55.6 3.15C60.4667 5.25 64.7 8.1 68.3 11.7C71.9 15.3 74.75 19.5333 76.85 24.4C78.95 29.2667 80 34.4667 80 40C80 45.5333 78.95 50.7333 76.85 55.6C74.75 60.4667 71.9 64.7 68.3 68.3C64.7 71.9 60.4667 74.75 55.6 76.85C50.7333 78.95 45.5333 80 40 80ZM34.6 8.5C37.4 13.1667 41.2 16.9167 46 19.75C50.8 22.5833 56.1333 24 62 24C62.9333 24 63.8333 23.95 64.7 23.85C65.5667 23.75 66.4667 23.6333 67.4 23.5C64.6 18.8333 60.8 15.0833 56 12.25C51.2 9.41667 45.8667 8 40 8C39.0667 8 38.1667 8.05 37.3 8.15C36.4333 8.25 35.5333 8.36667 34.6 8.5ZM9.7 29.9C13.1 27.9667 16.0667 25.4667 18.6 22.4C21.1333 19.3333 23.0333 15.9 24.3 12.1C20.9 14.0333 17.9333 16.5333 15.4 19.6C12.8667 22.6667 10.9667 26.1 9.7 29.9Z" fill="#FFEAA4"/>
</svg>
