<svg width="20" height="21" viewBox="0 0 20 21" fill="none" xmlns="http://www.w3.org/2000/svg">
<mask id="mask0_28_1173" style="mask-type:alpha" maskUnits="userSpaceOnUse" x="-2" y="-2" width="24" height="25">
<rect x="-2" y="-1.875" width="24" height="24" fill="#D9D9D9"/>
</mask>
<g mask="url(#mask0_28_1173)">
<path d="M10 0C10.8167 0.983333 11.55 1.89583 12.2 2.7375C12.85 3.57917 13.4333 4.38333 13.95 5.15L20 0.625V10.125C20 11.5083 19.7375 12.8083 19.2125 14.025C18.6875 15.2417 17.975 16.3 17.075 17.2C16.175 18.1 15.1167 18.8125 13.9 19.3375C12.6833 19.8625 11.3833 20.125 10 20.125C8.61667 20.125 7.31667 19.8625 6.1 19.3375C4.88333 18.8125 3.825 18.1 2.925 17.2C2.025 16.3 1.3125 15.2417 0.7875 14.025C0.2625 12.8083 0 11.5083 0 10.125V0.625L6.05 5.15C6.56667 4.4 7.15 3.6 7.8 2.75C8.45 1.9 9.18333 0.983333 10 0ZM2 4.625V10.125C2 10.8583 2.09583 11.5625 2.2875 12.2375C2.47917 12.9125 2.74167 13.5417 3.075 14.125C3.04167 13.9583 3.02083 13.7958 3.0125 13.6375C3.00417 13.4792 3 13.3083 3 13.125C3 12.175 3.15417 11.1958 3.4625 10.1875C3.77083 9.17917 4.275 8.075 4.975 6.875L2 4.625ZM10 3.125C8.16667 5.35833 6.875 7.30833 6.125 8.975C5.375 10.6417 5 12.025 5 13.125C5 14.5083 5.4875 15.6875 6.4625 16.6625C7.4375 17.6375 8.61667 18.125 10 18.125C11.3833 18.125 12.5625 17.6375 13.5375 16.6625C14.5125 15.6875 15 14.5083 15 13.125C15 12.025 14.625 10.6333 13.875 8.95C13.125 7.26667 11.8333 5.325 10 3.125ZM18 4.625L15.025 6.85C15.725 8.05 16.2292 9.15417 16.5375 10.1625C16.8458 11.1708 17 12.1583 17 13.125C17 13.3083 16.9958 13.4792 16.9875 13.6375C16.9792 13.7958 16.9583 13.9583 16.925 14.125C17.2583 13.5417 17.5208 12.9125 17.7125 12.2375C17.9042 11.5625 18 10.8583 18 10.125V4.625Z" fill="#404A2A"/>
</g>
</svg>
