<svg width="17" height="17" viewBox="0 0 17 17" fill="none" xmlns="http://www.w3.org/2000/svg">
<mask id="mask0_22_677" style="mask-type:alpha" maskUnits="userSpaceOnUse" x="-2" y="-2" width="21" height="21">
<rect x="-1.69983" y="-1.70007" width="20.3999" height="20.3999" fill="#D9D9D9"/>
</mask>
<g mask="url(#mask0_22_677)">
<path d="M8.49996 16.9999C7.32413 16.9999 6.21914 16.7768 5.18497 16.3305C4.15081 15.8843 3.25123 15.2787 2.48624 14.5137C1.72124 13.7487 1.11562 12.8491 0.669372 11.8149C0.223124 10.7808 0 9.67579 0 8.49996C0 7.32413 0.223124 6.21914 0.669372 5.18497C1.11562 4.15081 1.72124 3.25123 2.48624 2.48624C3.25123 1.72124 4.15081 1.11562 5.18497 0.669372C6.21914 0.223124 7.32413 0 8.49996 0C9.67579 0 10.7808 0.223124 11.8149 0.669372C12.8491 1.11562 13.7487 1.72124 14.5137 2.48624C15.2787 3.25123 15.8843 4.15081 16.3305 5.18497C16.7768 6.21914 16.9999 7.32413 16.9999 8.49996C16.9999 9.67579 16.7768 10.7808 16.3305 11.8149C15.8843 12.8491 15.2787 13.7487 14.5137 14.5137C13.7487 15.2787 12.8491 15.8843 11.8149 16.3305C10.7808 16.7768 9.67579 16.9999 8.49996 16.9999ZM5.94997 12.7499H11.0499V11.0499H7.64996V9.34995H9.34995C9.81745 9.34995 10.2177 9.1835 10.5506 8.85058C10.8835 8.51767 11.0499 8.11746 11.0499 7.64996V5.94997C11.0499 5.48247 10.8835 5.08227 10.5506 4.74935C10.2177 4.41644 9.81745 4.24998 9.34995 4.24998H5.94997V5.94997H9.34995V7.64996H7.64996C7.18246 7.64996 6.78226 7.81642 6.44934 8.14934C6.11643 8.48225 5.94997 8.88246 5.94997 9.34995V12.7499Z" fill="#404A2A"/>
</g>
</svg>
