<svg width="20" height="18" viewBox="0 0 20 18" fill="none" xmlns="http://www.w3.org/2000/svg">
<mask id="mask0_20_63" style="mask-type:alpha" maskUnits="userSpaceOnUse" x="-2" y="-3" width="24" height="24">
<rect x="-2" y="-3" width="24" height="24" fill="#D9D9D9"/>
</mask>
<g mask="url(#mask0_20_63)">
<path d="M6 18V16H8V14H2C1.45 14 0.979167 13.8042 0.5875 13.4125C0.195833 13.0208 0 12.55 0 12V2C0 1.45 0.195833 0.979167 0.5875 0.5875C0.979167 0.195833 1.45 0 2 0H18C18.55 0 19.0208 0.195833 19.4125 0.5875C19.8042 0.979167 20 1.45 20 2V12C20 12.55 19.8042 13.0208 19.4125 13.4125C19.0208 13.8042 18.55 14 18 14H12V16H14V18H6ZM2 12H18V2H2V12Z" fill="#FFE9A4"/>
</g>
</svg>
