<svg width="20" height="19" viewBox="0 0 20 19" fill="none" xmlns="http://www.w3.org/2000/svg">
<mask id="mask0_6_797" style="mask-type:alpha" maskUnits="userSpaceOnUse" x="-2" y="-3" width="24" height="24">
<rect x="-2" y="-3" width="24" height="24" fill="#D9D9D9"/>
</mask>
<g mask="url(#mask0_6_797)">
<path d="M8.7 9.725L7.85 8.45C7.76667 8.31667 7.65 8.20833 7.5 8.125C7.35 8.04167 7.19167 8 7.025 8H0.475C0.291667 7.56667 0.166667 7.15 0.1 6.75C0.0333333 6.35 0 5.93333 0 5.5C0 3.93333 0.525 2.625 1.575 1.575C2.625 0.525 3.93333 0 5.5 0C6.36667 0 7.19167 0.183333 7.975 0.55C8.75833 0.916667 9.43333 1.43333 10 2.1C10.5667 1.43333 11.2417 0.916667 12.025 0.55C12.8083 0.183333 13.6333 0 14.5 0C16.0667 0 17.375 0.525 18.425 1.575C19.475 2.625 20 3.93333 20 5.5C20 5.93333 19.9667 6.35 19.9 6.75C19.8333 7.15 19.7083 7.56667 19.525 8H13.575L11.85 5.45C11.75 5.3 11.6208 5.1875 11.4625 5.1125C11.3042 5.0375 11.1333 5 10.95 5C10.7333 5 10.5458 5.0625 10.3875 5.1875C10.2292 5.3125 10.1167 5.475 10.05 5.675L8.7 9.725ZM10 18.35L8.55 17.05C6.8 15.4833 5.36667 14.1417 4.25 13.025C3.13333 11.9083 2.25833 10.9 1.625 10H6.425L8.15 12.55C8.25 12.7 8.37917 12.8125 8.5375 12.8875C8.69583 12.9625 8.86667 13 9.05 13C9.26667 13 9.45417 12.9375 9.6125 12.8125C9.77083 12.6875 9.88333 12.525 9.95 12.325L11.3 8.25L12.175 9.55C12.2583 9.68333 12.375 9.79167 12.525 9.875C12.675 9.95833 12.8333 10 13 10H18.375C17.7417 10.9 16.8667 11.9083 15.75 13.025C14.6333 14.1417 13.2 15.4833 11.45 17.05L10 18.35Z" fill="#404A2A"/>
</g>
</svg>
