<svg width="16" height="22" viewBox="0 0 16 22" fill="none" xmlns="http://www.w3.org/2000/svg">
<mask id="mask0_28_1404" style="mask-type:alpha" maskUnits="userSpaceOnUse" x="-4" y="-1" width="24" height="25">
<rect x="-4" y="-0.799988" width="24" height="24" fill="#D9D9D9"/>
</mask>
<g mask="url(#mask0_28_1404)">
<path d="M2.75 21.2C2 21.2 1.35417 20.9458 0.8125 20.4375C0.270833 19.9292 0 19.3 0 18.55V4.6C0 3.96667 0.195833 3.4 0.5875 2.9C0.979167 2.4 1.49167 2.08333 2.125 1.95L12 0V16L2.525 17.9C2.375 17.9333 2.25 18.0125 2.15 18.1375C2.05 18.2625 2 18.4 2 18.55C2 18.7333 2.075 18.8875 2.225 19.0125C2.375 19.1375 2.55 19.2 2.75 19.2H14V3.2H16V21.2H2.75ZM3 15.775L5 15.375V3.425L3 3.825V15.775Z" fill="#404A2A"/>
</g>
</svg>
