<svg width="54" height="54" viewBox="0 0 54 54" fill="none" xmlns="http://www.w3.org/2000/svg">
<path d="M27 54C23.31 54 19.8225 53.2913 16.5375 51.8738C13.2525 50.4563 10.3838 48.5213 7.93125 46.0688C5.47875 43.6163 3.54375 40.7475 2.12625 37.4625C0.70875 34.1775 0 30.69 0 27C0 23.265 0.70875 19.7663 2.12625 16.5038C3.54375 13.2413 5.47875 10.3838 7.93125 7.93125C10.3838 5.47875 13.2525 3.54375 16.5375 2.12625C19.8225 0.70875 23.31 0 27 0C27.765 0 28.4063 0.25875 28.9238 0.77625C29.4413 1.29375 29.7 1.935 29.7 2.7C29.7 3.465 29.4413 4.10625 28.9238 4.62375C28.4063 5.14125 27.765 5.4 27 5.4C21.015 5.4 15.9188 7.50375 11.7113 11.7113C7.50375 15.9188 5.4 21.015 5.4 27C5.4 32.985 7.50375 38.0813 11.7113 42.2888C15.9188 46.4963 21.015 48.6 27 48.6C32.985 48.6 38.0813 46.4963 42.2888 42.2888C46.4963 38.0813 48.6 32.985 48.6 27C48.6 26.235 48.8588 25.5938 49.3763 25.0763C49.8938 24.5588 50.535 24.3 51.3 24.3C52.065 24.3 52.7063 24.5588 53.2238 25.0763C53.7413 25.5938 54 26.235 54 27C54 30.69 53.2913 34.1775 51.8738 37.4625C50.4563 40.7475 48.5213 43.6163 46.0688 46.0688C43.6163 48.5213 40.7588 50.4563 37.4963 51.8738C34.2338 53.2913 30.735 54 27 54Z" fill="#404A2A"/>
</svg>
